<?xml version="1.0" encoding="utf-8"?>
<!-- Generator: Adobe Illustrator 25.1.0, SVG Export Plug-In . SVG Version: 6.00 Build 0)  -->
<svg version="1.1" id="Camada_1" xmlns="http://www.w3.org/2000/svg" xmlns:xlink="http://www.w3.org/1999/xlink" x="0px" y="0px"
	 viewBox="0 0 283.46 283.46" style="enable-background:new 0 0 283.46 283.46;" xml:space="preserve">
<g>
	<g>
		<path style="fill:#0E5984;" d="M187.86,108.07c-1.51,0-1.48,0-1.57-1.5c-0.28-4.62-1.88-8.75-4.79-12.34
			c-3.89-4.8-8.95-7.52-15.09-8.19c-0.58-0.06-1.16-0.09-1.74-0.11c-0.32-0.01-0.44-0.15-0.44-0.46c0.01-0.67,0.02-1.34-0.01-2.01
			c-0.02-0.44,0.16-0.58,0.59-0.58c2.12,0.01,4.2,0.32,6.22,0.91c7.14,2.1,12.42,6.49,15.8,13.11c1.66,3.26,2.49,6.75,2.58,10.4
			c0.02,0.76,0.01,0.76-0.76,0.77C188.39,108.07,188.13,108.07,187.86,108.07z"/>
		<path style="fill:#026AA2;" d="M181.02,107.88c-1.54,0-1.49,0-1.63-1.53c-0.27-3.14-1.47-5.92-3.5-8.31
			c-2.39-2.81-5.42-4.53-9.05-5.18c-0.68-0.12-1.36-0.2-2.05-0.18c-0.41,0.01-0.57-0.16-0.56-0.57c0.02-0.65,0.02-1.31,0-1.96
			c-0.02-0.44,0.16-0.59,0.59-0.58c2.49,0.09,4.88,0.6,7.11,1.69c5.88,2.87,9.36,7.56,10.45,14.02c0.11,0.66,0.14,1.33,0.16,2
			c0.01,0.48-0.17,0.64-0.62,0.6C181.63,107.86,181.32,107.88,181.02,107.88z"/>
		<path style="fill:#3F99C6;" d="M174.63,108.07c-1.42,0-1.42,0-1.6-1.41c-0.48-3.69-3.71-6.91-7.4-7.38
			c-0.19-0.02-0.38-0.07-0.58-0.08c-0.85-0.01-0.82-0.03-0.82-0.95c0-0.57,0.01-1.13,0-1.7c-0.01-0.35,0.16-0.45,0.49-0.44
			c5.67,0.16,10.55,4.55,11.34,10.19c0.06,0.42,0.09,0.84,0.1,1.27c0.01,0.36-0.12,0.53-0.49,0.52
			C175.33,108.06,174.98,108.07,174.63,108.07z"/>
	</g>
	<g>
		<path style="fill:#02394B;" d="M170.32,145.9c0,10.91,0.01,21.81,0,32.72c-0.01,5.64-3.74,10.13-9.27,11.17
			c-0.61,0.11-1.24,0.13-1.87,0.13c-12.56,0.01-25.13,0.02-37.69,0c-6.32-0.01-11.21-4.9-11.22-11.23c-0.01-21.7-0.01-43.4,0-65.11
			c0-6.74,4.74-11.66,11.49-11.7c12.34-0.07,24.69-0.05,37.03,0c5.81,0.02,10.32,3.75,11.39,9.21c0.17,0.84,0.14,1.69,0.14,2.53
			C170.32,124.38,170.32,135.14,170.32,145.9z M164.23,145.97c0-10.83,0.01-21.66,0-32.49c0-3.31-2.08-5.39-5.38-5.39
			c-12.38-0.01-24.76,0-37.14-0.01c-0.74,0-1.47,0.06-2.16,0.36c-2.33,1.02-3.19,2.9-3.19,5.32c0,21.4,0,42.81,0.01,64.21
			c0,3.87,1.99,5.87,5.85,5.87c12.05,0,24.09,0,36.14,0c3.93,0,5.87-1.96,5.87-5.93C164.23,167.26,164.23,156.61,164.23,145.97z"/>
		<path style="fill:#02394B;" d="M160.09,144.21c0,8.4,0,16.79,0,25.19c0,1.61-0.04,1.65-1.69,1.65c-12.08,0-24.16,0-36.24,0
			c-1.62,0-1.66-0.04-1.66-1.68c0-16.83,0-33.66,0-50.49c0-1.61,0.01-1.62,1.58-1.62c12.15,0,24.31,0,36.46,0
			c1.53,0,1.55,0.01,1.55,1.53C160.09,127.27,160.09,135.74,160.09,144.21z M124.08,144.05c0,7.29,0,14.59,0,21.88
			c0,1.54,0,1.54,1.5,1.54c9.8,0,19.6,0,29.4,0c1.53,0,1.53,0,1.53-1.52c0-14.59,0-29.17,0-43.76c0-1.48-0.01-1.48-1.46-1.48
			c-9.84,0-19.67,0-29.51,0c-1.46,0-1.47,0-1.47,1.46C124.07,129.47,124.08,136.76,124.08,144.05z"/>
		<path style="fill:#02394B;" d="M140.25,173.02c2.39,0,4.44,2.01,4.47,4.41c0.04,2.42-2.05,4.52-4.48,4.5
			c-2.42-0.01-4.37-2.01-4.37-4.46C135.87,175.02,137.83,173.03,140.25,173.02z"/>
	</g>
</g>
<g>
	<path style="fill:#055F8E;" d="M58.74,205.39l6.84-4.57l1.06,1.59l-6.84,4.57L58.74,205.39z"/>
	<path style="fill:#055F8E;" d="M65.31,214.35l2.04-1.6c0.89-0.7,1.71-1.3,2.47-1.82l-0.02-0.03c-0.55,0.14-1.02,0.22-1.4,0.26
		l-3.07,0.43l-0.35-0.45l1.16-2.91c0.2-0.49,0.39-0.91,0.57-1.28l-0.02-0.03c-0.57,0.52-1.36,1.17-2.35,1.95l-2.06,1.62l-1.14-1.45
		l6.48-5.08l1.22,1.56l-1.23,2.92l-0.72,1.57l1.7-0.3l3.13-0.51l1.2,1.52l-6.48,5.08L65.31,214.35z"/>
	<path style="fill:#055F8E;" d="M71.66,217.05l-2.14,2.05l-1.32-1.38l5.95-5.69l3.03,3.16c0.51,0.53,0.76,0.97,0.78,1.32
		s-0.22,0.75-0.68,1.2l-1.36,1.3c-0.47,0.45-0.88,0.66-1.24,0.64c-0.36-0.02-0.79-0.29-1.31-0.83L71.66,217.05z M75.93,216.34
		c0.07-0.07,0.11-0.13,0.1-0.19c0-0.06-0.04-0.12-0.12-0.2l-1.49-1.55l-1.71,1.64l1.49,1.55c0.08,0.08,0.14,0.12,0.2,0.13
		s0.12-0.03,0.19-0.1L75.93,216.34z"/>
	<path style="fill:#055F8E;" d="M75.69,225.24c-0.58-0.51-0.89-0.95-0.92-1.33c-0.03-0.38,0.21-0.86,0.71-1.44l4.19-4.77l1.44,1.26
		l-4.29,4.88c-0.07,0.08-0.1,0.14-0.09,0.19c0.01,0.05,0.05,0.12,0.13,0.19l1.59,1.4c0.09,0.08,0.16,0.12,0.21,0.12
		c0.05,0,0.11-0.04,0.18-0.12l4.29-4.88l1.44,1.26l-4.19,4.77c-0.51,0.58-0.95,0.88-1.34,0.9s-0.86-0.23-1.42-0.72L75.69,225.24z"/>
	<path style="fill:#055F8E;" d="M81.06,229.71l4.91-6.6l1.54,1.14l-4,5.37l2.93,2.18l-0.92,1.23L81.06,229.71z"/>
	<path style="fill:#055F8E;" d="M88.8,235.22l-1.58-1.06l0.79-1.26l3.11,1.96c0.1,0.06,0.17,0.09,0.22,0.09s0.1-0.05,0.16-0.14
		l0.82-1.3c0.06-0.09,0.07-0.17,0.04-0.22c-0.03-0.06-0.12-0.13-0.28-0.23c-0.59-0.39-1.02-0.67-1.3-0.84
		c-0.7-0.47-1.1-0.88-1.21-1.23c-0.1-0.35,0.02-0.81,0.37-1.37l0.65-1.03c0.34-0.55,0.69-0.86,1.05-0.93
		c0.36-0.07,0.85,0.08,1.47,0.48l1.51,0.95l1.55,1.03l-0.74,1.17l-2.86-1.8c-0.09-0.06-0.17-0.08-0.22-0.08
		c-0.06,0.01-0.11,0.05-0.17,0.14l-0.7,1.11c-0.06,0.09-0.07,0.17-0.04,0.22c0.03,0.06,0.12,0.13,0.28,0.23l1.27,0.84
		c0.72,0.47,1.15,0.88,1.27,1.22c0.12,0.34,0,0.79-0.35,1.36l-0.8,1.28c-0.38,0.6-0.74,0.94-1.1,1.01
		c-0.35,0.08-0.85-0.09-1.49-0.49L88.8,235.22z"/>
	<path style="fill:#055F8E;" d="M94.22,238.41l3.93-7.23l1.68,0.91l-3.93,7.23L94.22,238.41z"/>
	<path style="fill:#055F8E;" d="M99.75,241.35c-0.69-0.32-1.11-0.66-1.25-1.01c-0.14-0.35-0.05-0.88,0.27-1.58l1.86-4.04
		c0.32-0.7,0.66-1.11,1.02-1.24c0.36-0.12,0.89-0.03,1.58,0.29l2.77,1.27c0.69,0.32,1.11,0.66,1.25,1.01s0.05,0.88-0.27,1.58
		l-1.86,4.04c-0.32,0.7-0.66,1.11-1.02,1.24c-0.36,0.12-0.89,0.03-1.58-0.29L99.75,241.35z M105.34,236.62
		c0.04-0.09,0.05-0.15,0.03-0.2c-0.02-0.05-0.09-0.1-0.19-0.15l-2.35-1.08c-0.1-0.05-0.18-0.06-0.23-0.04
		c-0.05,0.02-0.1,0.07-0.14,0.15l-2.02,4.39c-0.04,0.09-0.05,0.16-0.03,0.21c0.02,0.05,0.08,0.1,0.18,0.14l2.35,1.08
		c0.11,0.05,0.19,0.07,0.24,0.05s0.1-0.07,0.14-0.16L105.34,236.62z"/>
	<path style="fill:#055F8E;" d="M111.4,245.99l-1-4.8c-0.07-0.32-0.16-0.82-0.27-1.5l-0.02-0.01c-0.14,0.56-0.48,1.61-1.02,3.16
		l-0.73,2.07l-1.71-0.6l2.73-7.76l1.6,0.56l1,4.78l0.28,1.51l0.02,0.01c0.19-0.69,0.53-1.75,1.02-3.16l0.73-2.07l1.72,0.6
		l-2.73,7.76L111.4,245.99z"/>
	<path style="fill:#055F8E;" d="M120.24,248.49l-0.02-1.83l-2.66-0.67l-0.89,1.6l-1.87-0.47l4.45-7.36l2.48,0.63l0.42,8.59
		L120.24,248.49z M118.24,244.71l1.98,0.5l-0.09-3.69l-0.05-0.01L118.24,244.71z"/>
	<path style="fill:#055F8E;" d="M128.94,250.12l-1.85-4.54c-0.13-0.3-0.31-0.77-0.54-1.42l-0.02,0c-0.04,0.58-0.18,1.67-0.44,3.29
		l-0.35,2.17l-1.78-0.29l1.3-8.12l1.68,0.27l1.84,4.53l0.55,1.44l0.02,0c0.06-0.72,0.21-1.81,0.44-3.29l0.35-2.17l1.8,0.29
		l-1.3,8.12L128.94,250.12z"/>
	<path style="fill:#055F8E;" d="M133.16,250.67l0.55-8.21l4.54,0.3c0.76,0.05,1.27,0.22,1.53,0.5c0.26,0.28,0.36,0.81,0.31,1.58
		l-0.29,4.32c-0.05,0.77-0.22,1.28-0.52,1.52c-0.29,0.25-0.82,0.34-1.58,0.29L133.16,250.67z M138.19,244.49
		c0.01-0.09-0.01-0.16-0.05-0.2c-0.04-0.04-0.11-0.06-0.23-0.07l-2.39-0.16l-0.35,5.21l2.39,0.16c0.12,0.01,0.2,0,0.24-0.04
		c0.04-0.03,0.07-0.1,0.07-0.2L138.19,244.49z"/>
	<path style="fill:#055F8E;" d="M144,251.2c-0.76,0.02-1.29-0.11-1.57-0.36c-0.28-0.26-0.43-0.77-0.45-1.54l-0.09-4.45
		c-0.02-0.77,0.11-1.29,0.38-1.56c0.27-0.27,0.79-0.41,1.55-0.43l3.05-0.06c0.76-0.02,1.29,0.11,1.57,0.36
		c0.28,0.26,0.43,0.77,0.45,1.54l0.09,4.45c0.02,0.77-0.11,1.29-0.38,1.56c-0.27,0.27-0.79,0.41-1.55,0.43L144,251.2z
		 M146.97,244.51c0-0.09-0.02-0.16-0.06-0.19c-0.04-0.03-0.12-0.05-0.24-0.05l-2.59,0.05c-0.11,0-0.18,0.02-0.22,0.06
		c-0.04,0.04-0.06,0.1-0.06,0.2l0.1,4.83c0,0.1,0.02,0.17,0.06,0.21c0.04,0.04,0.12,0.05,0.22,0.05l2.59-0.05
		c0.12,0,0.2-0.02,0.24-0.06c0.04-0.04,0.06-0.11,0.05-0.21L146.97,244.51z"/>
	<path style="fill:#055F8E;" d="M157.49,250.2l-1.89,0.22l-0.22-1.47l3.63-0.54c0.12-0.02,0.19-0.04,0.23-0.08s0.04-0.11,0.03-0.21
		l-0.23-1.52c-0.02-0.11-0.05-0.17-0.11-0.2c-0.06-0.02-0.18-0.02-0.36,0.01c-0.7,0.09-1.21,0.16-1.53,0.2
		c-0.84,0.1-1.41,0.05-1.72-0.15c-0.31-0.2-0.51-0.63-0.61-1.28l-0.18-1.2c-0.1-0.64-0.03-1.1,0.19-1.39s0.7-0.49,1.42-0.59
		l1.76-0.26l1.85-0.23l0.2,1.37l-3.34,0.5c-0.11,0.02-0.18,0.04-0.22,0.09c-0.04,0.04-0.05,0.11-0.03,0.21l0.19,1.3
		c0.02,0.11,0.05,0.17,0.11,0.2c0.06,0.02,0.18,0.02,0.37-0.01l1.51-0.19c0.86-0.11,1.44-0.08,1.76,0.1
		c0.31,0.18,0.52,0.59,0.62,1.26l0.22,1.49c0.1,0.7,0.05,1.19-0.17,1.48c-0.22,0.29-0.7,0.49-1.45,0.6L157.49,250.2z"/>
	<path style="fill:#055F8E;" d="M163.77,249.11l-1.89-8.01l5.91-1.4l0.34,1.44l-4.04,0.96l0.4,1.7l3.23-0.76l0.34,1.42l-3.23,0.76
		l0.46,1.95l4.04-0.96l0.35,1.49L163.77,249.11z"/>
	<path style="fill:#055F8E;" d="M173.8,246.53c-0.73,0.24-1.27,0.28-1.62,0.12c-0.34-0.17-0.64-0.61-0.88-1.35l-1.98-6.02l1.82-0.6
		l2.03,6.17c0.03,0.1,0.07,0.16,0.12,0.18c0.05,0.02,0.12,0.01,0.23-0.02l2.01-0.66c0.11-0.04,0.18-0.08,0.21-0.12
		s0.02-0.12-0.01-0.21l-2.03-6.17l1.82-0.6l1.98,6.02c0.24,0.73,0.27,1.27,0.09,1.6c-0.18,0.34-0.63,0.62-1.34,0.86L173.8,246.53z"
		/>
	<path style="fill:#055F8E;" d="M188.7,240.43l-4.11-2.67c-0.28-0.17-0.69-0.46-1.25-0.86l-0.02,0.01c0.3,0.49,0.8,1.48,1.51,2.95
		l0.95,1.98l-1.63,0.78l-3.57-7.41l1.53-0.74l4.09,2.67l1.27,0.87l0.02-0.01c-0.36-0.62-0.87-1.61-1.51-2.95l-0.95-1.98l1.64-0.79
		l3.57,7.41L188.7,240.43z"/>
	<path style="fill:#055F8E;" d="M192.45,238.47l-4.21-7.07l5.22-3.11l0.75,1.27l-3.57,2.13l0.89,1.5l2.85-1.7l0.75,1.26l-2.85,1.7
		l1.03,1.72l3.57-2.13l0.79,1.32L192.45,238.47z"/>
	<path style="fill:#055F8E;" d="M201.2,233.04c-0.62,0.45-1.12,0.64-1.5,0.59s-0.79-0.39-1.24-1.02l-2.59-3.6
		c-0.45-0.63-0.64-1.13-0.57-1.5c0.07-0.38,0.42-0.79,1.04-1.23l1.82-1.31l1.76-1.21l0.83,1.16l-3.38,2.43
		c-0.09,0.06-0.14,0.12-0.15,0.17c-0.01,0.05,0.01,0.12,0.07,0.19l2.81,3.91c0.06,0.08,0.12,0.13,0.17,0.13s0.12-0.02,0.21-0.09
		l1.86-1.34c0.09-0.06,0.14-0.12,0.16-0.18c0.01-0.05-0.01-0.12-0.07-0.21l-0.97-1.34l-1.12,0.81l-0.82-1.14l2.68-1.92l1.7,2.36
		c0.45,0.63,0.64,1.13,0.57,1.5c-0.07,0.38-0.41,0.78-1.03,1.22L201.2,233.04z"/>
	<path style="fill:#055F8E;" d="M208.46,227.47c-0.58,0.5-1.06,0.74-1.44,0.72s-0.82-0.32-1.33-0.9l-2.92-3.37
		c-0.51-0.58-0.74-1.06-0.71-1.44c0.04-0.38,0.34-0.82,0.92-1.32l2.3-2c0.58-0.5,1.06-0.74,1.44-0.72c0.38,0.02,0.82,0.32,1.33,0.9
		l2.92,3.37c0.51,0.58,0.74,1.07,0.71,1.45c-0.04,0.38-0.34,0.82-0.92,1.32L208.46,227.47z M203.21,220.1l-0.49-2.26l1.13-0.98
		l0.33,2.4L203.21,220.1z M206.46,220.43c-0.06-0.07-0.12-0.11-0.17-0.11c-0.05,0-0.12,0.04-0.21,0.11l-1.96,1.69
		c-0.08,0.07-0.13,0.13-0.13,0.19c-0.01,0.05,0.02,0.11,0.08,0.19l3.16,3.65c0.07,0.08,0.13,0.12,0.18,0.12
		c0.05,0,0.12-0.04,0.2-0.11l1.96-1.69c0.09-0.08,0.14-0.14,0.14-0.2s-0.02-0.12-0.09-0.19L206.46,220.43z"/>
	<path style="fill:#055F8E;" d="M216.68,219.7l-1.33,1.37c-0.53,0.54-0.98,0.82-1.37,0.83c-0.39,0.01-0.86-0.25-1.42-0.8l-3.12-3.03
		c-0.56-0.54-0.84-1.01-0.84-1.39s0.26-0.85,0.79-1.4l1.33-1.37l1.33-1.3l1.05,1.02l-2.48,2.55c-0.08,0.08-0.12,0.15-0.12,0.2
		s0.03,0.11,0.1,0.18l3.39,3.29c0.07,0.07,0.13,0.1,0.18,0.1c0.05-0.01,0.11-0.05,0.19-0.13l2.48-2.55l1.09,1.06
		C217.7,218.63,217.28,219.09,216.68,219.7z"/>
	<path style="fill:#055F8E;" d="M219.34,216.72l-6.23-5.37l1.25-1.45l6.23,5.37L219.34,216.72z"/>
	<path style="fill:#055F8E;" d="M223.37,211.93c-0.46,0.61-0.88,0.95-1.25,1.01c-0.38,0.06-0.87-0.14-1.49-0.6l-3.56-2.67
		c-0.62-0.46-0.95-0.88-0.99-1.26c-0.04-0.38,0.16-0.87,0.62-1.48l1.83-2.44c0.46-0.61,0.88-0.95,1.25-1.01s0.87,0.14,1.49,0.6
		l3.56,2.67c0.62,0.46,0.95,0.88,0.99,1.26c0.04,0.38-0.16,0.87-0.62,1.48L223.37,211.93z M219.94,205.47
		c-0.08-0.06-0.14-0.08-0.19-0.07c-0.05,0.01-0.11,0.06-0.18,0.16l-1.55,2.07c-0.07,0.09-0.1,0.16-0.09,0.21s0.04,0.11,0.12,0.16
		l3.86,2.9c0.08,0.06,0.15,0.09,0.2,0.08c0.05-0.01,0.11-0.06,0.18-0.15l1.55-2.07c0.07-0.09,0.1-0.17,0.1-0.22
		s-0.05-0.11-0.13-0.17L219.94,205.47z"/>
</g>
<g>
	<path style="fill:none;stroke:#055F8E;stroke-width:4;stroke-miterlimit:10;" d="M54.75,194.68
		c-7.96-14.45-12.49-31.06-12.49-48.72c0-29.61,12.73-56.24,33.01-74.73"/>
	<path style="fill:none;stroke:#055F8E;stroke-width:4;stroke-miterlimit:10;" d="M212.56,72.27
		c19.63,18.44,31.88,44.63,31.88,73.69c0,17.67-4.53,34.27-12.49,48.72"/>
</g>
<g>
	<path style="fill:#055F8E;" d="M103.23,53.22l-3.87,1.79c-1.69,0.78-2.98,1.02-3.89,0.71s-1.77-1.33-2.57-3.06l-4.18-9.03
		c-0.8-1.72-1.03-3.02-0.69-3.91c0.34-0.88,1.37-1.72,3.09-2.52l3.87-1.79l4.25-1.84l1.65,3.57l-7.41,3.43
		c-0.25,0.12-0.32,0.3-0.2,0.56l4.43,9.56c0.12,0.25,0.3,0.32,0.56,0.2l7.41-3.43l1.71,3.69C106.55,51.63,105.17,52.32,103.23,53.22
		z"/>
	<path style="fill:#055F8E;" d="M125.34,46.4l-1.75-3.73l-5.45,1.18l-0.05,4.12l-5.1,1.11l1.21-20.16l6.87-1.49l9.47,17.83
		L125.34,46.4z M118.16,40.02l3.79-0.82l-3.47-7.15l-0.11,0.02L118.16,40.02z"/>
	<path style="fill:#055F8E;" d="M142.28,38.24l-0.07,6.61l-5.19-0.05l0.2-19.43l10.34,0.11c1.8,0.02,3.03,0.32,3.68,0.92
		s0.97,1.68,0.96,3.26l-0.05,4.46c-0.02,1.6-0.36,2.7-1.02,3.31c-0.67,0.61-1.91,0.9-3.73,0.88L142.28,38.24z M147,29.7
		c0-0.28-0.13-0.42-0.41-0.42l-4.21-0.04l-0.05,5.07l4.21,0.04c0.28,0,0.42-0.14,0.42-0.41L147,29.7z"/>
	<path style="fill:#055F8E;" d="M163.74,46.88l3.5-15.07l-5.13-1.19l0.9-3.86l15.32,3.55l-0.89,3.86l-5.13-1.19l-3.5,15.07
		L163.74,46.88z"/>
	<path style="fill:#055F8E;" d="M188.96,55.63l0.85-4.03l-5.06-2.33l-2.52,3.26l-4.73-2.18l13.1-15.36l6.38,2.94l-3.17,19.93
		L188.96,55.63z M187.07,46.23l3.52,1.62l1.54-7.79l-0.1-0.05L187.07,46.23z"/>
</g>
<circle style="fill:none;stroke:#055F8E;stroke-width:4;stroke-miterlimit:10;" cx="143.35" cy="141.33" r="126.57"/>
</svg>
