<?xml version="1.0" encoding="utf-8"?>
<!-- Generator: Adobe Illustrator 25.1.0, SVG Export Plug-In . SVG Version: 6.00 Build 0)  -->
<svg version="1.1" id="Camada_1" xmlns="http://www.w3.org/2000/svg" xmlns:xlink="http://www.w3.org/1999/xlink" x="0px" y="0px"
	 viewBox="0 0 283.46 283.46" style="enable-background:new 0 0 283.46 283.46;" xml:space="preserve">
<g>
	<g>
		<path style="fill:#0E5984;" d="M207.15,61.45c-2.15,0-2.1,0-2.23-2.13c-0.4-6.57-2.67-12.45-6.8-17.55
			c-5.53-6.83-12.72-10.69-21.46-11.65c-0.82-0.09-1.65-0.13-2.48-0.16c-0.45-0.02-0.62-0.22-0.62-0.65
			c0.01-0.95,0.03-1.91-0.01-2.86c-0.02-0.63,0.23-0.82,0.84-0.82c3.01,0.02,5.97,0.45,8.84,1.3c10.16,2.98,17.66,9.22,22.46,18.64
			c2.36,4.63,3.54,9.59,3.67,14.79c0.03,1.08,0.01,1.09-1.08,1.09C207.91,61.45,207.53,61.45,207.15,61.45z"/>
		<path style="fill:#026AA2;" d="M197.43,61.18c-2.19,0-2.12-0.01-2.31-2.17c-0.39-4.46-2.09-8.41-4.98-11.82
			c-3.39-4-7.7-6.45-12.87-7.36c-0.96-0.17-1.94-0.28-2.92-0.26c-0.58,0.01-0.81-0.22-0.79-0.81c0.03-0.93,0.03-1.86,0-2.79
			c-0.02-0.63,0.23-0.84,0.84-0.82c3.53,0.13,6.94,0.85,10.11,2.4c8.36,4.08,13.31,10.75,14.85,19.93c0.16,0.94,0.2,1.89,0.23,2.85
			c0.02,0.68-0.24,0.9-0.88,0.85C198.28,61.15,197.85,61.18,197.43,61.18z"/>
		<path style="fill:#3F99C6;" d="M188.33,61.45c-2.02,0-2.02,0-2.28-2c-0.68-5.24-5.27-9.83-10.52-10.5
			c-0.27-0.04-0.55-0.11-0.82-0.11c-1.21-0.01-1.16-0.05-1.16-1.36c0-0.8,0.01-1.61,0-2.41c-0.01-0.5,0.22-0.65,0.7-0.63
			c8.06,0.23,15,6.47,16.13,14.48c0.08,0.6,0.12,1.2,0.15,1.8c0.02,0.51-0.17,0.75-0.69,0.73
			C189.34,61.43,188.83,61.45,188.33,61.45z"/>
	</g>
	<g>
		<path style="fill:#02394B;" d="M182.71,115.24c0,15.51,0.01,31.01-0.01,46.52c-0.01,8.02-5.31,14.4-13.17,15.88
			c-0.87,0.16-1.77,0.19-2.66,0.19c-17.86,0.01-35.73,0.03-53.59,0.01c-8.98-0.01-15.94-6.97-15.95-15.97
			c-0.02-30.86-0.01-61.71-0.01-92.57c0-9.58,6.74-16.58,16.34-16.63c17.55-0.1,35.1-0.08,52.65,0c8.27,0.03,14.67,5.33,16.2,13.09
			c0.23,1.19,0.2,2.4,0.2,3.6C182.71,84.64,182.71,99.94,182.71,115.24z M174.05,115.33c0-15.4,0.01-30.8-0.01-46.2
			c0-4.71-2.96-7.67-7.65-7.67c-17.6-0.01-35.2,0-52.8-0.01c-1.06,0-2.09,0.09-3.07,0.52c-3.31,1.45-4.54,4.12-4.54,7.56
			c0.01,30.43,0,60.87,0.01,91.3c0,5.5,2.83,8.34,8.32,8.34c17.13,0,34.26,0,51.39,0c5.59,0,8.35-2.79,8.35-8.43
			C174.05,145.61,174.05,130.47,174.05,115.33z"/>
		<path style="fill:#02394B;" d="M168.16,112.83c0,11.94,0,23.88,0,35.82c0,2.29-0.06,2.35-2.4,2.35c-17.18,0-34.35,0-51.53,0
			c-2.3,0-2.36-0.06-2.36-2.39c0-23.93,0-47.86,0-71.8c0-2.3,0.01-2.3,2.24-2.3c17.28,0,34.56,0,51.84,0c2.18,0,2.2,0.02,2.2,2.18
			C168.17,88.74,168.16,100.79,168.16,112.83z M116.96,112.61c0,10.37,0,20.74,0,31.11c0,2.19,0.01,2.19,2.14,2.19
			c13.93,0,27.86,0,41.8,0c2.17,0,2.18-0.01,2.18-2.17c0-20.74,0-41.48,0-62.22c0-2.1-0.01-2.11-2.07-2.11c-13.98,0-27.97,0-41.95,0
			c-2.08,0-2.09,0.01-2.09,2.08C116.96,91.87,116.96,102.24,116.96,112.61z"/>
		<path style="fill:#02394B;" d="M139.95,153.8c3.4-0.01,6.31,2.86,6.36,6.26c0.05,3.44-2.92,6.42-6.37,6.4
			c-3.44-0.02-6.22-2.86-6.22-6.34C133.73,156.65,136.52,153.81,139.95,153.8z"/>
	</g>
</g>
<g>
	<path style="fill:#055F8E;" d="M94.05,217.78h-6.07c-2.64,0-4.46-0.47-5.45-1.41c-0.99-0.94-1.49-2.77-1.49-5.49v-14.15
		c0-2.7,0.48-4.51,1.45-5.45c0.96-0.94,2.79-1.41,5.49-1.41h6.07l6.58,0.16v5.59H89.01c-0.4,0-0.59,0.2-0.59,0.59v14.98
		c0,0.4,0.2,0.59,0.59,0.59h11.62v5.79C99.28,217.71,97.09,217.78,94.05,217.78z"/>
	<path style="fill:#055F8E;" d="M120.37,217.62l-1.31-5.71h-7.93l-1.31,5.71h-7.41l7.77-27.63h9.99l7.77,27.63H120.37z
		 M112.32,206.6h5.51l-2.66-10.98h-0.16L112.32,206.6z"/>
	<path style="fill:#055F8E;" d="M137.9,208.23v9.4h-7.37v-27.63h14.71c2.56,0,4.31,0.42,5.25,1.25c0.94,0.83,1.41,2.37,1.41,4.62
		v6.34c0,2.27-0.47,3.85-1.41,4.72c-0.94,0.87-2.7,1.31-5.29,1.31H137.9z M144.48,196.02c0-0.4-0.2-0.59-0.59-0.59h-5.99v7.21h5.99
		c0.4,0,0.59-0.2,0.59-0.59V196.02z"/>
	<path style="fill:#055F8E;" d="M162.04,217.62v-22h-7.49v-5.63h22.36v5.63h-7.49v22H162.04z"/>
	<path style="fill:#055F8E;" d="M193.36,217.62l-1.31-5.71h-7.93l-1.31,5.71h-7.41l7.77-27.63h9.99l7.77,27.63H193.36z
		 M185.32,206.6h5.51l-2.66-10.98h-0.16L185.32,206.6z"/>
</g>
<g>
	<path style="fill:#055F8E;" d="M75.13,237.15v-11.38h2.64v11.38H75.13z"/>
	<path style="fill:#055F8E;" d="M89.15,237.15v-3.59c0-1.56,0.04-2.97,0.13-4.25h-0.05c-0.33,0.72-0.63,1.3-0.91,1.75l-2.16,3.71
		h-0.78l-2.17-3.74c-0.36-0.63-0.66-1.2-0.9-1.71h-0.05c0.08,1.07,0.11,2.47,0.11,4.21v3.62h-2.55v-11.38h2.74l2.12,3.82l1.09,2.12
		l1.13-2.11l2.12-3.84h2.68v11.38H89.15z"/>
	<path style="fill:#055F8E;" d="M96.41,233.05v4.1h-2.64v-11.38h6.06c1.01,0,1.7,0.16,2.07,0.49s0.55,0.94,0.55,1.83v2.6
		c0,0.89-0.18,1.51-0.54,1.85c-0.36,0.34-1.05,0.51-2.07,0.51H96.41z M99.79,228.11c0-0.14-0.03-0.24-0.09-0.29
		c-0.06-0.05-0.17-0.07-0.32-0.07h-2.97v3.28h2.97c0.15,0,0.26-0.02,0.32-0.07c0.06-0.05,0.09-0.14,0.09-0.29V228.11z"/>
	<path style="fill:#055F8E;" d="M107.04,237.23c-1.07,0-1.79-0.18-2.17-0.55s-0.57-1.08-0.57-2.15v-8.77h2.65v8.98
		c0,0.14,0.03,0.24,0.08,0.29c0.05,0.05,0.16,0.07,0.31,0.07h2.92c0.16,0,0.27-0.02,0.33-0.07c0.05-0.05,0.08-0.14,0.08-0.29v-8.98
		h2.65v8.77c0,1.07-0.19,1.78-0.57,2.15s-1.09,0.55-2.14,0.55H107.04z"/>
	<path style="fill:#055F8E;" d="M115.34,237.15v-11.38h2.64v9.26h5.05v2.12H115.34z"/>
	<path style="fill:#055F8E;" d="M127.14,237.22l-2.63-0.08v-2.06h5.08c0.16,0,0.27-0.02,0.33-0.06c0.05-0.04,0.08-0.14,0.08-0.28
		v-2.12c0-0.15-0.04-0.25-0.11-0.29c-0.08-0.04-0.24-0.07-0.49-0.07c-0.98-0.02-1.69-0.03-2.14-0.03c-1.16-0.03-1.94-0.22-2.32-0.56
		s-0.57-0.96-0.57-1.88v-1.68c0-0.89,0.18-1.51,0.55-1.86c0.36-0.35,1.05-0.52,2.07-0.52h2.47l2.58,0.06v1.91h-4.67
		c-0.15,0-0.26,0.02-0.32,0.07c-0.06,0.05-0.09,0.14-0.09,0.29v1.81c0,0.15,0.04,0.25,0.11,0.29s0.24,0.07,0.51,0.07l2.11,0.05
		c1.2,0.02,1.99,0.19,2.38,0.49c0.39,0.3,0.59,0.92,0.59,1.84v2.09c0,0.98-0.18,1.64-0.54,1.99c-0.36,0.35-1.06,0.52-2.11,0.52
		H127.14z"/>
	<path style="fill:#055F8E;" d="M134.58,237.15v-11.38h2.64v11.38H134.58z"/>
	<path style="fill:#055F8E;" d="M141.95,237.23c-1.06,0-1.77-0.18-2.16-0.55s-0.57-1.08-0.57-2.15v-6.16c0-1.07,0.19-1.78,0.57-2.15
		s1.1-0.55,2.16-0.55h4.21c1.06,0,1.77,0.18,2.15,0.55c0.38,0.36,0.57,1.08,0.57,2.15v6.16c0,1.07-0.19,1.78-0.57,2.15
		c-0.38,0.36-1.1,0.55-2.15,0.55H141.95z M146.24,228.07c0-0.13-0.03-0.22-0.08-0.27c-0.05-0.05-0.16-0.07-0.33-0.07h-3.58
		c-0.15,0-0.26,0.02-0.31,0.07c-0.05,0.05-0.08,0.14-0.08,0.27v6.68c0,0.14,0.03,0.24,0.08,0.29c0.05,0.05,0.16,0.07,0.31,0.07h3.58
		c0.16,0,0.27-0.02,0.33-0.07c0.05-0.05,0.08-0.14,0.08-0.29V228.07z"/>
	<path style="fill:#055F8E;" d="M157.85,237.15l-3.51-5.8c-0.24-0.38-0.59-0.99-1.04-1.83h-0.03c0.08,0.79,0.11,2.32,0.11,4.59v3.04
		h-2.5v-11.38h2.35l3.49,5.78l1.06,1.84h0.03c-0.08-0.99-0.11-2.52-0.11-4.59v-3.04h2.51v11.38H157.85z"/>
	<path style="fill:#055F8E;" d="M169.11,237.15l-0.65-2.45h-3.79l-0.65,2.45h-2.66l3.46-11.38h3.54l3.48,11.38H169.11z
		 M165.15,232.76h2.82l-1.37-4.91h-0.07L165.15,232.76z"/>
	<path style="fill:#055F8E;" d="M179.95,237.15l-3.51-5.8c-0.24-0.38-0.59-0.99-1.04-1.83h-0.03c0.08,0.79,0.11,2.32,0.11,4.59v3.04
		h-2.5v-11.38h2.35l3.49,5.78l1.06,1.84h0.03c-0.08-0.99-0.11-2.52-0.11-4.59v-3.04h2.51v11.38H179.95z"/>
	<path style="fill:#055F8E;" d="M184.38,237.15v-11.38h6.29c1.06,0,1.77,0.18,2.16,0.55s0.57,1.08,0.57,2.15v5.99
		c0,1.07-0.19,1.78-0.57,2.15s-1.1,0.55-2.16,0.55H184.38z M190.74,228.15c0-0.13-0.03-0.22-0.08-0.27
		c-0.05-0.05-0.16-0.07-0.33-0.07h-3.31v7.22h3.31c0.16,0,0.27-0.02,0.33-0.07c0.05-0.05,0.08-0.14,0.08-0.29V228.15z"/>
	<path style="fill:#055F8E;" d="M198.04,237.23c-1.06,0-1.77-0.18-2.16-0.55s-0.57-1.08-0.57-2.15v-6.16c0-1.07,0.19-1.78,0.57-2.15
		s1.1-0.55,2.16-0.55h4.21c1.06,0,1.77,0.18,2.15,0.55c0.38,0.36,0.57,1.08,0.57,2.15v6.16c0,1.07-0.19,1.78-0.57,2.15
		c-0.38,0.36-1.1,0.55-2.15,0.55H198.04z M202.34,228.07c0-0.13-0.03-0.22-0.08-0.27c-0.05-0.05-0.16-0.07-0.33-0.07h-3.58
		c-0.15,0-0.26,0.02-0.31,0.07s-0.08,0.14-0.08,0.27v6.68c0,0.14,0.03,0.24,0.08,0.29s0.16,0.07,0.31,0.07h3.58
		c0.16,0,0.27-0.02,0.33-0.07c0.05-0.05,0.08-0.14,0.08-0.29V228.07z"/>
	<path style="fill:#055F8E;" d="M77.76,253.54l-2.48-0.08v-1.94h4.79c0.15,0,0.26-0.02,0.31-0.06s0.08-0.13,0.08-0.26v-2
		c0-0.14-0.04-0.24-0.11-0.28s-0.23-0.06-0.46-0.06c-0.92-0.02-1.6-0.03-2.02-0.03c-1.1-0.03-1.83-0.21-2.19-0.52
		c-0.36-0.32-0.54-0.91-0.54-1.77v-1.59c0-0.84,0.17-1.43,0.52-1.76s0.99-0.49,1.95-0.49h2.33l2.43,0.06v1.8h-4.4
		c-0.14,0-0.24,0.02-0.3,0.07c-0.06,0.05-0.08,0.14-0.08,0.27v1.71c0,0.14,0.04,0.24,0.11,0.28s0.23,0.06,0.48,0.06l1.99,0.05
		c1.13,0.02,1.88,0.17,2.25,0.46c0.37,0.29,0.55,0.87,0.55,1.74v1.97c0,0.92-0.17,1.55-0.51,1.88c-0.34,0.33-1,0.49-1.99,0.49H77.76
		z"/>
	<path style="fill:#055F8E;" d="M87.93,253.48v-10.73h7.91v1.92h-5.42v2.28h4.33v1.91h-4.33v2.62h5.42v2H87.93z"/>
	<path style="fill:#055F8E;" d="M103.25,253.55c-1.01,0-1.69-0.17-2.05-0.52c-0.36-0.34-0.54-1.02-0.54-2.02v-8.27h2.49v8.47
		c0,0.13,0.03,0.22,0.08,0.27c0.05,0.05,0.15,0.07,0.29,0.07h2.76c0.15,0,0.26-0.02,0.31-0.07c0.05-0.05,0.08-0.14,0.08-0.27v-8.47
		h2.49v8.27c0,1.01-0.18,1.68-0.54,2.02c-0.36,0.34-1.03,0.52-2.02,0.52H103.25z"/>
	<path style="fill:#055F8E;" d="M128.2,253.48l-3.31-5.47c-0.23-0.36-0.55-0.93-0.99-1.72h-0.03c0.07,0.75,0.11,2.19,0.11,4.33v2.86
		h-2.36v-10.73h2.22l3.29,5.45l1,1.74h0.03c-0.07-0.93-0.11-2.38-0.11-4.33v-2.86h2.37v10.73H128.2z"/>
	<path style="fill:#055F8E;" d="M135.53,253.48v-10.73h7.91v1.92h-5.42v2.28h4.33v1.91h-4.33v2.62h5.42v2H135.53z"/>
	<path style="fill:#055F8E;" d="M150.8,253.55c-1,0-1.67-0.17-2.03-0.52c-0.36-0.34-0.54-1.02-0.54-2.02v-5.77
		c0-1.01,0.18-1.68,0.54-2.02c0.36-0.34,1.04-0.52,2.03-0.52h2.92l2.79,0.06v1.86h-5.42c-0.14,0-0.24,0.02-0.29,0.07
		c-0.05,0.05-0.08,0.13-0.08,0.25v6.27c0,0.13,0.03,0.22,0.08,0.27c0.05,0.05,0.15,0.07,0.29,0.07h2.99c0.14,0,0.24-0.02,0.3-0.07
		c0.06-0.05,0.08-0.14,0.08-0.27v-2.16h-1.8v-1.83h4.3v3.79c0,1.01-0.18,1.68-0.54,2.02c-0.36,0.34-1.03,0.52-2.02,0.52H150.8z"/>
	<path style="fill:#055F8E;" d="M164.51,253.55c-1,0-1.67-0.17-2.03-0.52c-0.36-0.34-0.54-1.02-0.54-2.02v-5.8
		c0-1.01,0.18-1.68,0.54-2.02c0.36-0.34,1.04-0.52,2.03-0.52h3.97c1,0,1.67,0.17,2.03,0.52c0.36,0.34,0.54,1.02,0.54,2.02v5.8
		c0,1.01-0.18,1.68-0.54,2.02c-0.36,0.34-1.04,0.52-2.03,0.52H164.51z M168.56,244.92c0-0.12-0.03-0.21-0.08-0.25
		c-0.05-0.05-0.15-0.07-0.31-0.07h-3.37c-0.14,0-0.24,0.02-0.29,0.07c-0.05,0.05-0.08,0.13-0.08,0.25v6.3
		c0,0.13,0.03,0.22,0.08,0.27c0.05,0.05,0.15,0.07,0.29,0.07h3.37c0.15,0,0.26-0.02,0.31-0.07c0.05-0.05,0.08-0.14,0.08-0.27V244.92
		z M165.64,241.82l1.45-2.65h1.96l-1.72,2.65H165.64z"/>
	<path style="fill:#055F8E;" d="M181.09,253.54h-2.49c-0.99,0-1.66-0.18-2.02-0.53c-0.37-0.35-0.55-1.04-0.55-2.06v-5.67
		c0-1.02,0.18-1.7,0.54-2.06s1.04-0.53,2.03-0.53h2.49l2.43,0.06v1.91h-4.63c-0.14,0-0.24,0.02-0.29,0.07
		c-0.05,0.05-0.08,0.13-0.08,0.25v6.16c0,0.13,0.03,0.22,0.08,0.26c0.05,0.04,0.15,0.06,0.29,0.06h4.63v1.99
		C183.02,253.51,182.21,253.54,181.09,253.54z"/>
	<path style="fill:#055F8E;" d="M188.29,253.48v-10.73h2.5v10.73H188.29z"/>
	<path style="fill:#055F8E;" d="M198.39,253.55c-1,0-1.67-0.17-2.03-0.52c-0.36-0.34-0.54-1.02-0.54-2.02v-5.8
		c0-1.01,0.18-1.68,0.54-2.02c0.36-0.34,1.04-0.52,2.03-0.52h3.97c1,0,1.67,0.17,2.03,0.52c0.36,0.34,0.54,1.02,0.54,2.02v5.8
		c0,1.01-0.18,1.68-0.54,2.02c-0.36,0.34-1.04,0.52-2.03,0.52H198.39z M202.44,244.92c0-0.12-0.03-0.21-0.08-0.25
		c-0.05-0.05-0.15-0.07-0.31-0.07h-3.37c-0.14,0-0.24,0.02-0.29,0.07c-0.05,0.05-0.08,0.13-0.08,0.25v6.3
		c0,0.13,0.03,0.22,0.08,0.27c0.05,0.05,0.15,0.07,0.29,0.07h3.37c0.15,0,0.26-0.02,0.31-0.07c0.05-0.05,0.08-0.14,0.08-0.27V244.92
		z"/>
</g>
</svg>
