<?xml version="1.0" encoding="utf-8"?>
<!-- Generator: Adobe Illustrator 25.1.0, SVG Export Plug-In . SVG Version: 6.00 Build 0)  -->
<svg version="1.1" id="Camada_1" xmlns="http://www.w3.org/2000/svg" xmlns:xlink="http://www.w3.org/1999/xlink" x="0px" y="0px"
	 viewBox="0 0 283.46 283.46" style="enable-background:new 0 0 283.46 283.46;" xml:space="preserve">
<g>
	<g>
		<path style="fill:#0E5984;" d="M209.37,71.04c-2.15,0-2.1,0-2.23-2.13c-0.4-6.57-2.67-12.45-6.8-17.55
			c-5.53-6.83-12.72-10.69-21.46-11.65c-0.82-0.09-1.65-0.13-2.48-0.16c-0.45-0.02-0.62-0.22-0.62-0.65
			c0.01-0.95,0.03-1.91-0.01-2.86c-0.02-0.63,0.23-0.82,0.84-0.82c3.01,0.02,5.97,0.45,8.84,1.3c10.16,2.98,17.66,9.22,22.46,18.64
			c2.36,4.63,3.54,9.59,3.67,14.79c0.03,1.08,0.01,1.09-1.08,1.09C210.13,71.04,209.75,71.04,209.37,71.04z"/>
		<path style="fill:#026AA2;" d="M199.65,70.77c-2.19,0-2.12-0.01-2.31-2.17c-0.39-4.46-2.09-8.41-4.98-11.82
			c-3.39-4-7.7-6.45-12.87-7.36c-0.96-0.17-1.94-0.28-2.92-0.26c-0.58,0.01-0.81-0.22-0.79-0.81c0.03-0.93,0.03-1.86,0-2.79
			c-0.02-0.63,0.23-0.84,0.84-0.82c3.53,0.13,6.94,0.85,10.11,2.4c8.36,4.08,13.31,10.75,14.85,19.93c0.16,0.94,0.2,1.89,0.23,2.85
			c0.02,0.68-0.24,0.9-0.88,0.85C200.5,70.74,200.07,70.77,199.65,70.77z"/>
		<path style="fill:#3F99C6;" d="M190.55,71.04c-2.02,0-2.02,0-2.28-2c-0.68-5.24-5.27-9.83-10.52-10.5
			c-0.27-0.04-0.55-0.11-0.82-0.11c-1.21-0.01-1.16-0.05-1.16-1.36c0-0.8,0.01-1.61,0-2.41c-0.01-0.5,0.22-0.65,0.7-0.63
			c8.06,0.23,15,6.47,16.13,14.48c0.08,0.6,0.12,1.2,0.15,1.8c0.02,0.51-0.17,0.75-0.69,0.73
			C191.56,71.02,191.05,71.04,190.55,71.04z"/>
	</g>
	<g>
		<path style="fill:#02394B;" d="M184.42,124.83c0,15.51,0.01,31.01-0.01,46.52c-0.01,8.02-5.31,14.4-13.17,15.88
			c-0.87,0.16-1.77,0.19-2.66,0.19c-17.86,0.01-35.73,0.03-53.59,0.01c-8.98-0.01-15.94-6.97-15.95-15.97
			c-0.02-30.86-0.01-61.71-0.01-92.57c0-9.58,6.74-16.58,16.34-16.63c17.55-0.1,35.1-0.08,52.65,0c8.27,0.03,14.67,5.33,16.2,13.09
			c0.23,1.19,0.2,2.4,0.2,3.6C184.42,94.23,184.42,109.53,184.42,124.83z M175.76,124.92c0-15.4,0.01-30.8-0.01-46.2
			c0-4.71-2.96-7.67-7.65-7.67c-17.6-0.01-35.2,0-52.8-0.01c-1.06,0-2.09,0.09-3.07,0.52c-3.31,1.45-4.54,4.12-4.54,7.56
			c0.01,30.43,0,60.87,0.01,91.3c0,5.5,2.83,8.34,8.32,8.34c17.13,0,34.26,0,51.39,0c5.59,0,8.35-2.79,8.35-8.43
			C175.76,155.2,175.76,140.06,175.76,124.92z"/>
		<path style="fill:#02394B;" d="M169.88,122.42c0,11.94,0,23.88,0,35.82c0,2.29-0.06,2.35-2.4,2.35c-17.18,0-34.35,0-51.53,0
			c-2.3,0-2.36-0.06-2.36-2.39c0-23.93,0-47.86,0-71.8c0-2.3,0.01-2.3,2.24-2.3c17.28,0,34.56,0,51.84,0c2.18,0,2.2,0.02,2.2,2.18
			C169.88,98.33,169.88,110.38,169.88,122.42z M118.67,122.2c0,10.37,0,20.74,0,31.11c0,2.19,0.01,2.19,2.14,2.19
			c13.93,0,27.86,0,41.8,0c2.17,0,2.18-0.01,2.18-2.17c0-20.74,0-41.48,0-62.22c0-2.1-0.01-2.11-2.07-2.11c-13.98,0-27.97,0-41.95,0
			c-2.08,0-2.09,0.01-2.09,2.08C118.67,101.46,118.67,111.83,118.67,122.2z"/>
		<path style="fill:#02394B;" d="M141.67,163.39c3.4-0.01,6.31,2.86,6.36,6.26c0.05,3.44-2.92,6.42-6.37,6.4
			c-3.44-0.02-6.22-2.86-6.22-6.34C135.44,166.24,138.23,163.4,141.67,163.39z"/>
	</g>
</g>
<g>
	<path style="fill:#055F8E;" d="M97.65,227.36h-5.82c-2.53,0-4.28-0.45-5.23-1.35c-0.95-0.9-1.43-2.66-1.43-5.27v-13.57
		c0-2.59,0.46-4.33,1.39-5.23s2.68-1.35,5.27-1.35h5.82l6.31,0.15v5.36H92.82c-0.38,0-0.57,0.19-0.57,0.57v14.37
		c0,0.38,0.19,0.57,0.57,0.57h11.14v5.55C102.67,227.3,100.56,227.36,97.65,227.36z"/>
	<path style="fill:#055F8E;" d="M122.89,227.21l-1.25-5.48h-7.6l-1.25,5.48h-7.11l7.45-26.5h9.58l7.45,26.5H122.89z M115.18,216.64
		h5.29l-2.55-10.53h-0.15L115.18,216.64z"/>
	<path style="fill:#055F8E;" d="M139.7,218.2v9.01h-7.07v-26.5h14.11c2.46,0,4.14,0.4,5.04,1.2c0.9,0.8,1.35,2.28,1.35,4.43v6.08
		c0,2.18-0.45,3.69-1.35,4.52s-2.59,1.25-5.08,1.25H139.7z M146.01,206.49c0-0.38-0.19-0.57-0.57-0.57h-5.74v6.92h5.74
		c0.38,0,0.57-0.19,0.57-0.57V206.49z"/>
	<path style="fill:#055F8E;" d="M162.85,227.21v-21.1h-7.19v-5.4h21.45v5.4h-7.19v21.1H162.85z"/>
	<path style="fill:#055F8E;" d="M192.89,227.21l-1.25-5.48h-7.6l-1.25,5.48h-7.11l7.45-26.5h9.58l7.45,26.5H192.89z M185.17,216.64
		h5.29l-2.55-10.53h-0.15L185.17,216.64z"/>
</g>
<g>
	<path style="fill:#055F8E;" d="M29.74,243.94v-10.6h2.46v10.6H29.74z"/>
	<path style="fill:#055F8E;" d="M42.8,243.94v-3.35c0-1.45,0.04-2.77,0.12-3.96h-0.05c-0.3,0.67-0.59,1.21-0.85,1.63l-2.01,3.45
		h-0.73l-2.02-3.48c-0.33-0.59-0.61-1.12-0.84-1.6h-0.05c0.07,0.99,0.11,2.3,0.11,3.92v3.38h-2.37v-10.6h2.56l1.98,3.56l1.02,1.98
		l1.05-1.96l1.98-3.58h2.5v10.6H42.8z"/>
	<path style="fill:#055F8E;" d="M49.57,240.12v3.82h-2.46v-10.6h5.64c0.94,0,1.58,0.15,1.92,0.46s0.51,0.87,0.51,1.7v2.42
		c0,0.83-0.17,1.41-0.5,1.73c-0.33,0.32-0.98,0.48-1.93,0.48H49.57z M52.72,235.51c0-0.13-0.03-0.22-0.08-0.27
		c-0.06-0.05-0.15-0.07-0.3-0.07h-2.77v3.06h2.77c0.14,0,0.24-0.02,0.3-0.07c0.06-0.05,0.08-0.13,0.08-0.27V235.51z"/>
	<path style="fill:#055F8E;" d="M59.47,244.02c-0.99,0-1.67-0.17-2.02-0.51s-0.53-1.01-0.53-2v-8.17h2.46v8.37
		c0,0.13,0.03,0.22,0.08,0.27c0.05,0.05,0.15,0.07,0.29,0.07h2.72c0.15,0,0.25-0.02,0.3-0.07c0.05-0.05,0.08-0.13,0.08-0.27v-8.37
		h2.46v8.17c0,0.99-0.18,1.66-0.53,2s-1.02,0.51-1.99,0.51H59.47z"/>
	<path style="fill:#055F8E;" d="M67.2,243.94v-10.6h2.46v8.63h4.7v1.98H67.2z"/>
	<path style="fill:#055F8E;" d="M78.19,244l-2.45-0.08v-1.92h4.73c0.15,0,0.25-0.02,0.3-0.06c0.05-0.04,0.08-0.13,0.08-0.26v-1.98
		c0-0.14-0.04-0.23-0.11-0.27c-0.07-0.04-0.22-0.06-0.46-0.06c-0.91-0.02-1.58-0.03-1.99-0.03c-1.08-0.03-1.81-0.2-2.16-0.52
		c-0.35-0.31-0.53-0.9-0.53-1.75v-1.57c0-0.83,0.17-1.41,0.51-1.73c0.34-0.32,0.98-0.49,1.92-0.49h2.3l2.4,0.06v1.78h-4.35
		c-0.14,0-0.24,0.02-0.3,0.07c-0.06,0.05-0.08,0.13-0.08,0.27v1.69c0,0.14,0.04,0.23,0.11,0.27c0.07,0.04,0.23,0.06,0.47,0.06
		l1.96,0.05c1.12,0.02,1.86,0.17,2.22,0.46c0.37,0.28,0.55,0.86,0.55,1.72v1.95c0,0.91-0.17,1.53-0.5,1.86
		c-0.33,0.32-0.99,0.49-1.96,0.49H78.19z"/>
	<path style="fill:#055F8E;" d="M85.13,243.94v-10.6h2.46v10.6H85.13z"/>
	<path style="fill:#055F8E;" d="M91.99,244.02c-0.98,0-1.65-0.17-2.01-0.51s-0.53-1.01-0.53-2v-5.74c0-0.99,0.18-1.66,0.53-2
		s1.02-0.51,2.01-0.51h3.93c0.98,0,1.65,0.17,2.01,0.51s0.53,1.01,0.53,2v5.74c0,0.99-0.18,1.66-0.53,2s-1.02,0.51-2.01,0.51H91.99z
		 M95.99,235.48c0-0.12-0.03-0.21-0.08-0.25c-0.05-0.05-0.15-0.07-0.3-0.07h-3.33c-0.14,0-0.24,0.02-0.29,0.07
		c-0.05,0.05-0.08,0.13-0.08,0.25v6.22c0,0.13,0.02,0.22,0.08,0.27c0.05,0.05,0.15,0.07,0.29,0.07h3.33c0.15,0,0.25-0.02,0.3-0.07
		c0.05-0.05,0.08-0.13,0.08-0.27V235.48z"/>
	<path style="fill:#055F8E;" d="M106.8,243.94l-3.27-5.4c-0.22-0.35-0.55-0.92-0.97-1.7h-0.03c0.07,0.74,0.11,2.17,0.11,4.27v2.83
		h-2.33v-10.6h2.19l3.26,5.39l0.99,1.72h0.03c-0.07-0.92-0.11-2.35-0.11-4.27v-2.83h2.34v10.6H106.8z"/>
	<path style="fill:#055F8E;" d="M117.29,243.94l-0.61-2.28h-3.53l-0.61,2.28h-2.48l3.23-10.6h3.3l3.24,10.6H117.29z M113.6,239.85
		h2.63l-1.28-4.58h-0.06L113.6,239.85z"/>
	<path style="fill:#055F8E;" d="M127.39,243.94l-3.27-5.4c-0.22-0.35-0.55-0.92-0.97-1.7h-0.03c0.07,0.74,0.11,2.17,0.11,4.27v2.83
		h-2.33v-10.6h2.19l3.26,5.39l0.99,1.72h0.03c-0.07-0.92-0.11-2.35-0.11-4.27v-2.83h2.34v10.6H127.39z"/>
	<path style="fill:#055F8E;" d="M131.51,243.94v-10.6h5.86c0.98,0,1.65,0.17,2.01,0.51s0.53,1.01,0.53,2v5.58
		c0,0.99-0.18,1.66-0.53,2s-1.02,0.51-2.01,0.51H131.51z M137.45,235.56c0-0.12-0.03-0.21-0.08-0.25c-0.05-0.05-0.15-0.07-0.3-0.07
		h-3.09v6.72h3.09c0.15,0,0.25-0.02,0.3-0.07c0.05-0.05,0.08-0.13,0.08-0.27V235.56z"/>
	<path style="fill:#055F8E;" d="M144.24,244.02c-0.98,0-1.65-0.17-2.01-0.51s-0.53-1.01-0.53-2v-5.74c0-0.99,0.18-1.66,0.53-2
		s1.02-0.51,2.01-0.51h3.93c0.98,0,1.65,0.17,2.01,0.51s0.53,1.01,0.53,2v5.74c0,0.99-0.18,1.66-0.53,2s-1.02,0.51-2.01,0.51H144.24
		z M148.24,235.48c0-0.12-0.03-0.21-0.08-0.25c-0.05-0.05-0.15-0.07-0.3-0.07h-3.33c-0.14,0-0.24,0.02-0.29,0.07
		c-0.05,0.05-0.08,0.13-0.08,0.25v6.22c0,0.13,0.02,0.22,0.08,0.27c0.05,0.05,0.15,0.07,0.29,0.07h3.33c0.15,0,0.25-0.02,0.3-0.07
		c0.05-0.05,0.08-0.13,0.08-0.27V235.48z"/>
	<path style="fill:#055F8E;" d="M159.31,244l-2.45-0.08v-1.92h4.73c0.15,0,0.25-0.02,0.3-0.06c0.05-0.04,0.08-0.13,0.08-0.26v-1.98
		c0-0.14-0.04-0.23-0.11-0.27c-0.07-0.04-0.22-0.06-0.46-0.06c-0.91-0.02-1.58-0.03-1.99-0.03c-1.08-0.03-1.81-0.2-2.16-0.52
		c-0.35-0.31-0.53-0.9-0.53-1.75v-1.57c0-0.83,0.17-1.41,0.51-1.73c0.34-0.32,0.98-0.49,1.92-0.49h2.3l2.4,0.06v1.78h-4.35
		c-0.14,0-0.24,0.02-0.3,0.07c-0.06,0.05-0.08,0.13-0.08,0.27v1.69c0,0.14,0.04,0.23,0.11,0.27c0.07,0.04,0.23,0.06,0.47,0.06
		l1.96,0.05c1.12,0.02,1.86,0.17,2.22,0.46c0.37,0.28,0.55,0.86,0.55,1.72v1.95c0,0.91-0.17,1.53-0.5,1.86
		c-0.33,0.32-0.99,0.49-1.96,0.49H159.31z"/>
	<path style="fill:#055F8E;" d="M166.25,243.94v-10.6h7.82v1.9h-5.35v2.25h4.27v1.89h-4.27v2.59h5.35v1.98H166.25z"/>
	<path style="fill:#055F8E;" d="M178.26,244.02c-0.99,0-1.67-0.17-2.02-0.51s-0.53-1.01-0.53-2v-8.17h2.46v8.37
		c0,0.13,0.03,0.22,0.08,0.27c0.05,0.05,0.15,0.07,0.29,0.07h2.72c0.15,0,0.25-0.02,0.3-0.07c0.05-0.05,0.08-0.13,0.08-0.27v-8.37
		h2.46v8.17c0,0.99-0.18,1.66-0.53,2s-1.02,0.51-1.99,0.51H178.26z"/>
	<path style="fill:#055F8E;" d="M196.68,243.94l-3.27-5.4c-0.22-0.35-0.55-0.92-0.97-1.7h-0.03c0.07,0.74,0.11,2.17,0.11,4.27v2.83
		h-2.33v-10.6h2.19l3.26,5.39l0.99,1.72h0.03c-0.07-0.92-0.11-2.35-0.11-4.27v-2.83h2.34v10.6H196.68z"/>
	<path style="fill:#055F8E;" d="M200.8,243.94v-10.6h7.82v1.9h-5.35v2.25h4.27v1.89h-4.27v2.59h5.35v1.98H200.8z"/>
	<path style="fill:#055F8E;" d="M212.77,244.02c-0.98,0-1.65-0.17-2.01-0.51s-0.53-1.01-0.53-2v-5.71c0-0.99,0.18-1.66,0.53-2
		c0.35-0.34,1.02-0.51,2.01-0.51h2.89l2.75,0.06v1.84h-5.35c-0.14,0-0.24,0.02-0.29,0.07c-0.05,0.05-0.08,0.13-0.08,0.25v6.19
		c0,0.13,0.02,0.22,0.08,0.27c0.05,0.05,0.15,0.07,0.29,0.07h2.95c0.14,0,0.24-0.02,0.3-0.07c0.06-0.05,0.08-0.13,0.08-0.27v-2.13
		h-1.78v-1.81h4.24v3.74c0,0.99-0.18,1.66-0.53,2s-1.02,0.51-1.99,0.51H212.77z"/>
	<path style="fill:#055F8E;" d="M223.2,244.02c-0.98,0-1.65-0.17-2.01-0.51s-0.53-1.01-0.53-2v-5.74c0-0.99,0.18-1.66,0.53-2
		s1.02-0.51,2.01-0.51h3.93c0.98,0,1.65,0.17,2.01,0.51s0.53,1.01,0.53,2v5.74c0,0.99-0.18,1.66-0.53,2s-1.02,0.51-2.01,0.51H223.2z
		 M227.21,235.48c0-0.12-0.03-0.21-0.08-0.25c-0.05-0.05-0.15-0.07-0.3-0.07h-3.33c-0.14,0-0.24,0.02-0.29,0.07
		c-0.05,0.05-0.08,0.13-0.08,0.25v6.22c0,0.13,0.02,0.22,0.08,0.27c0.05,0.05,0.15,0.07,0.29,0.07h3.33c0.15,0,0.25-0.02,0.3-0.07
		c0.05-0.05,0.08-0.13,0.08-0.27V235.48z M224.32,232.42l1.43-2.62h1.93l-1.7,2.62H224.32z"/>
	<path style="fill:#055F8E;" d="M236.47,244H234c-0.97,0-1.64-0.18-2-0.52c-0.36-0.35-0.54-1.03-0.54-2.03v-5.6
		c0-1,0.18-1.68,0.53-2.03c0.35-0.35,1.02-0.52,2.01-0.52h2.46l2.4,0.06v1.89h-4.58c-0.14,0-0.24,0.02-0.29,0.07
		c-0.05,0.05-0.08,0.13-0.08,0.25v6.08c0,0.13,0.02,0.22,0.08,0.26s0.15,0.06,0.29,0.06h4.58v1.96
		C238.37,243.98,237.57,244,236.47,244z"/>
	<path style="fill:#055F8E;" d="M240.47,243.94v-10.6h2.46v10.6H240.47z"/>
	<path style="fill:#055F8E;" d="M247.32,244.02c-0.98,0-1.65-0.17-2.01-0.51s-0.53-1.01-0.53-2v-5.74c0-0.99,0.18-1.66,0.53-2
		s1.02-0.51,2.01-0.51h3.93c0.98,0,1.65,0.17,2.01,0.51s0.53,1.01,0.53,2v5.74c0,0.99-0.18,1.66-0.53,2s-1.02,0.51-2.01,0.51H247.32
		z M251.33,235.48c0-0.12-0.03-0.21-0.08-0.25c-0.05-0.05-0.15-0.07-0.3-0.07h-3.33c-0.14,0-0.24,0.02-0.29,0.07
		c-0.05,0.05-0.08,0.13-0.08,0.25v6.22c0,0.13,0.02,0.22,0.08,0.27c0.05,0.05,0.15,0.07,0.29,0.07h3.33c0.15,0,0.25-0.02,0.3-0.07
		c0.05-0.05,0.08-0.13,0.08-0.27V235.48z"/>
</g>
</svg>
